{"title":"Underworld Awakening 2012 R5 XviD Feel-Free","uid":7033239,"size":976393926,"categoryP":"video","categoryS":"movies","magnet":"?xt=urn:btih:8a5c2311ef0b80989893b66ce950a3793e112d22&amp;dn=Underworld+Awakening+2012+R5+XviD+Feel-Free&amp;tr=udp%3A%2F%2Ftracker.openbittorrent.com%3A80&amp;tr=udp%3A%2F%2Fopen.demonii.com%3A1337&amp;tr=udp%3A%2F%2Ftracker.coppersurfer.tk%3A6969&amp;tr=udp%3A%2F%2Fexodus.desync.com%3A6969","seeders":1,"leechers":0,"uploader":".BONE.","files":11,"time":1329284807,"description":"Genre:Action | Fantasy | Horror\nLanguage:English &lt;a href=&quot;\nhttp://www.imdb.com/title/tt1496025/&quot; rel=&quot;nofollow&quot; target=&quot;_NEW&quot;&gt;\nhttp://www.imdb.com/title/tt1496025/&lt;/a&gt;\nSource:Russian/INSPiRAL Thanks!\nEncoder:Tony\n\nFormat : AVI\nFormat/Info : Audio Video Interleave\nFile size : 930 MiB\nDuration : 1h 25mn\nOverall bit rate : 1 527 Kbps\n\nVideo\nID : 0\nFormat : MPEG-4 Visual\nFormat profile : Advanced Simple@L5\nFormat settings, BVOP : 1\nFormat settings, QPel : No\nFormat settings, GMC : No warppoints\nFormat settings, Matrix : Default (H.263)\nCodec ID : XVID\nCodec ID/Hint : XviD\nDuration : 1h 25mn\nBit rate : 1 325 Kbps\nWidth : 640 pixels\nHeight : 264 pixels\nDisplay aspect ratio : 2.40:1\nFrame rate : 25.000 fps\nColor space : YUV\nChroma subsampling : 4:2:0\nBit depth : 8 bits\nScan type : Progressive\nCompression mode : Lossy\nBits/(Pixel*Frame) : 0.314\nStream size : 807 MiB (87%)\nWriting library : XviD 1.2.1 (UTC 2008-12-04)\n\nAudio\nID : 1\nFormat : AC-3\nFormat/Info : Audio Coding 3\nMode extension : CM (complete main)\nCodec ID : 2000\nDuration : 1h 25mn\nBit rate mode : Constant\nBit rate : 192 Kbps\nChannel(s) : 2 channels\nChannel positions : Front: L R\nSampling rate : 48.0 KHz\nBit depth : 16 bits\nCompression mode : Lossy\nStream size : 117 MiB (13%)\nAlignment : Aligned on interleaves\nInterleave, duration : 40 ms (1.00 video frame)\nInterleave, preload duration : 512 ms\n\n\nPlot:\nWhen human forces discover the existence of the Vampire and Lycan clans, a war to eradicate both species commences. The vampire warrioress Selene leads the battle against humankind.\n","torrent":{"xt":"urn:btih:8a5c2311ef0b80989893b66ce950a3793e112d22","amp;dn":"Underworld+Awakening+2012+R5+XviD+Feel-Free","amp;tr":["udp%3A%2F%2Ftracker.openbittorrent.com%3A80","udp%3A%2F%2Fopen.demonii.com%3A1337","udp%3A%2F%2Ftracker.coppersurfer.tk%3A6969","udp%3A%2F%2Fexodus.desync.com%3A6969"],"infoHash":"8a5c2311ef0b80989893b66ce950a3793e112d22","infoHashBuffer":{"type":"Buffer","data":[138,92,35,17,239,11,128,152,152,147,182,108,233,80,163,121,62,17,45,34]},"announce":[],"urlList":[]}}